<svg xmlns="http://www.w3.org/2000/svg" viewBox="0 0 220 160"><path d="M26 55c0-24 21-43 47-43h71c26 0 47 19 47 43s-21 43-47 43h-44l-26 25 4-25h-5c-26 0-47-19-47-43Z" fill="#54c876" stroke="#17345f" stroke-width="5"/><text x="109" y="67" text-anchor="middle" font-size="36" font-weight="800" font-family="Arial" fill="#fff">Hello!</text><circle cx="158" cy="104" r="42" fill="#f4a73a" stroke="#17345f" stroke-width="5"/><path d="m130 78-18-22 28 8m46 14 18-22-28 8" fill="#f4a73a" stroke="#17345f" stroke-width="5" stroke-linejoin="round"/><circle cx="145" cy="101" r="5" fill="#17345f"/><circle cx="171" cy="101" r="5" fill="#17345f"/><path d="M147 121c8 6 15 6 23 0" fill="none" stroke="#8f4a2c" stroke-width="4" stroke-linecap="round"/><ellipse cx="158" cy="112" rx="12" ry="10" fill="#f7d38b"/><path d="m158 105-4 7 8 0Z" fill="#7e4924"/></svg>
