<svg xmlns="http://www.w3.org/2000/svg" viewBox="0 0 64 64" role="img" aria-labelledby="title">
<title>flame</title>
<defs>
  <linearGradient id="bg" x1="0" y1="0" x2="1" y2="1"><stop stop-color="#fff3ed"/><stop offset="1" stop-color="#ffffff"/></linearGradient>
  <filter id="s" x="-30%" y="-30%" width="160%" height="160%"><feDropShadow dx="0" dy="2" stdDeviation="2" flood-color="#163a75" flood-opacity=".16"/></filter>
</defs>
<rect x="4" y="4" width="56" height="56" rx="16" fill="url(#bg)"/>
<g filter="url(#s)"><path d="M34 10c3 10-5 12-2 20 2-4 5-7 10-9 7 8 9 14 7 21-3 10-13 15-22 12-10-3-15-13-12-22 2-7 7-11 12-17 1 6 0 10 3 13 1-7 5-10 4-18Z" fill="#ff744c" stroke="#17345f" stroke-width="2.5" stroke-linejoin="round"/><path d="M32 31c5 5 6 9 4 13-2 4-8 5-12 2-4-4-2-10 3-15 0 4 2 6 5 8 1-3 1-5 0-8Z" fill="#ffd35a"/></g>
</svg>
